<mxfile host="app.diagrams.net" modified="2022-01-21T09:09:49.707Z" agent="5.0 (Windows NT 10.0; Win64; x64) AppleWebKit/537.36 (KHTML, like Gecko) Chrome/95.0.4638.69 Safari/537.36" etag="P1Nk82ClgSxnPKHOsFnm" version="16.4.3" type="github">
  <diagram id="CcnGfPDEdtjwZ391O9cr" name="第 1 页">
    <mxGraphModel dx="1346" dy="733" grid="1" gridSize="10" guides="1" tooltips="1" connect="1" arrows="1" fold="1" page="1" pageScale="1" pageWidth="827" pageHeight="1169" math="0" shadow="0">
      <root>
        <mxCell id="0" />
        <mxCell id="1" parent="0" />
        <mxCell id="HOt7yasxgMVwdglPWZIX-1" value="电脑维护" style="text;html=1;resizable=0;autosize=1;align=left;verticalAlign=middle;points=[];fillColor=none;strokeColor=none;rounded=0;" vertex="1" parent="1">
          <mxGeometry x="50" y="40" width="60" height="20" as="geometry" />
        </mxCell>
        <mxCell id="HOt7yasxgMVwdglPWZIX-2" value="平面设计" style="text;html=1;resizable=0;autosize=1;align=left;verticalAlign=middle;points=[];fillColor=none;strokeColor=none;rounded=0;" vertex="1" parent="1">
          <mxGeometry x="50" y="250" width="60" height="20" as="geometry" />
        </mxCell>
        <mxCell id="HOt7yasxgMVwdglPWZIX-3" value="线下输出" style="text;html=1;resizable=0;autosize=1;align=left;verticalAlign=middle;points=[];fillColor=none;strokeColor=none;rounded=0;" vertex="1" parent="1">
          <mxGeometry x="140" y="350" width="60" height="20" as="geometry" />
        </mxCell>
        <mxCell id="HOt7yasxgMVwdglPWZIX-4" value="视觉设计" style="text;html=1;resizable=0;autosize=1;align=left;verticalAlign=middle;points=[];fillColor=none;strokeColor=none;rounded=0;" vertex="1" parent="1">
          <mxGeometry x="140" y="250" width="60" height="20" as="geometry" />
        </mxCell>
        <mxCell id="HOt7yasxgMVwdglPWZIX-5" value="字形设计" style="text;html=1;resizable=0;autosize=1;align=left;verticalAlign=middle;points=[];fillColor=none;strokeColor=none;rounded=0;" vertex="1" parent="1">
          <mxGeometry x="230" y="250" width="60" height="20" as="geometry" />
        </mxCell>
        <mxCell id="HOt7yasxgMVwdglPWZIX-6" value="版面编排" style="text;html=1;resizable=0;autosize=1;align=left;verticalAlign=middle;points=[];fillColor=none;strokeColor=none;rounded=0;" vertex="1" parent="1">
          <mxGeometry x="230" y="220" width="60" height="20" as="geometry" />
        </mxCell>
        <mxCell id="HOt7yasxgMVwdglPWZIX-7" value="标志设计" style="text;html=1;resizable=0;autosize=1;align=left;verticalAlign=middle;points=[];fillColor=none;strokeColor=none;rounded=0;" vertex="1" parent="1">
          <mxGeometry x="230" y="280" width="60" height="20" as="geometry" />
        </mxCell>
        <mxCell id="HOt7yasxgMVwdglPWZIX-8" value="线上输出" style="text;html=1;resizable=0;autosize=1;align=left;verticalAlign=middle;points=[];fillColor=none;strokeColor=none;rounded=0;" vertex="1" parent="1">
          <mxGeometry x="140" y="510" width="60" height="20" as="geometry" />
        </mxCell>
        <mxCell id="HOt7yasxgMVwdglPWZIX-9" value="印刷装订" style="text;html=1;resizable=0;autosize=1;align=left;verticalAlign=middle;points=[];fillColor=none;strokeColor=none;rounded=0;" vertex="1" parent="1">
          <mxGeometry x="230" y="350" width="60" height="20" as="geometry" />
        </mxCell>
        <mxCell id="HOt7yasxgMVwdglPWZIX-10" value="喷印制作" style="text;html=1;resizable=0;autosize=1;align=left;verticalAlign=middle;points=[];fillColor=none;strokeColor=none;rounded=0;" vertex="1" parent="1">
          <mxGeometry x="230" y="400" width="60" height="20" as="geometry" />
        </mxCell>
        <mxCell id="HOt7yasxgMVwdglPWZIX-12" value="发光" style="text;html=1;resizable=0;autosize=1;align=left;verticalAlign=middle;points=[];fillColor=none;strokeColor=none;rounded=0;" vertex="1" parent="1">
          <mxGeometry x="330" y="380" width="40" height="20" as="geometry" />
        </mxCell>
        <mxCell id="HOt7yasxgMVwdglPWZIX-13" value="不发光" style="text;html=1;resizable=0;autosize=1;align=left;verticalAlign=middle;points=[];fillColor=none;strokeColor=none;rounded=0;" vertex="1" parent="1">
          <mxGeometry x="330" y="410" width="50" height="20" as="geometry" />
        </mxCell>
      </root>
    </mxGraphModel>
  </diagram>
</mxfile>
